<svg width="20" height="20" viewBox="0 0 20 20" fill="none" xmlns="http://www.w3.org/2000/svg">
<path fill-rule="evenodd" clip-rule="evenodd" d="M20 10C20 4.47715 15.5228 0 10 0C4.47715 0 0 4.47715 0 10C0 15.5228 4.47715 20 10 20C11.473 20 12.874 19.6809 14.1356 19.1072L18.0848 19.8461C19.1322 20.0421 20.0442 19.114 19.83 18.0701L19.0485 14.2622C19.6591 12.9681 20 11.5225 20 10ZM5 8C3.89543 8 3 8.89543 3 10C3 11.1046 3.89543 12 5 12C6.10457 12 7 11.1046 7 10C7 8.89543 6.10457 8 5 8ZM8 10C8 8.89543 8.89543 8 10 8C11.1046 8 12 8.89543 12 10C12 11.1046 11.1046 12 10 12C8.89543 12 8 11.1046 8 10ZM15 8C13.8954 8 13 8.89543 13 10C13 11.1046 13.8954 12 15 12C16.1046 12 17 11.1046 17 10C17 8.89543 16.1046 8 15 8Z" fill="#271B27"/>
</svg>
