<svg width="21" height="21" viewBox="0 0 21 21" fill="none" xmlns="http://www.w3.org/2000/svg">
<path fill-rule="evenodd" clip-rule="evenodd" d="M10.5 2.5C14.9183 2.5 18.5 6.08172 18.5 10.5C18.5 11.7682 18.2056 12.9648 17.6824 14.0278C17.5384 14.3203 17.4863 14.662 17.5559 15.0014L18.2213 18.2434L14.8485 17.6123C14.525 17.5518 14.2011 17.6012 13.9212 17.7339C12.8851 18.2249 11.7261 18.5 10.5 18.5C6.08172 18.5 2.5 14.9183 2.5 10.5C2.5 6.08172 6.08172 2.5 10.5 2.5ZM20.5 10.5C20.5 4.97715 16.0228 0.5 10.5 0.5C4.97715 0.5 0.5 4.97715 0.5 10.5C0.5 16.0228 4.97715 20.5 10.5 20.5C11.973 20.5 13.374 20.1809 14.6356 19.6072L18.5848 20.3461C19.6322 20.5421 20.5442 19.614 20.33 18.5701L19.5485 14.7622C20.1591 13.4681 20.5 12.0225 20.5 10.5Z" fill="#B8B8B8"/>
<path fill-rule="evenodd" clip-rule="evenodd" d="M3.5 10.5C3.5 9.39543 4.39543 8.5 5.5 8.5C6.60457 8.5 7.5 9.39543 7.5 10.5C7.5 11.6046 6.60457 12.5 5.5 12.5C4.39543 12.5 3.5 11.6046 3.5 10.5Z" fill="#B8B8B8"/>
<path fill-rule="evenodd" clip-rule="evenodd" d="M8.5 10.5C8.5 9.39543 9.39543 8.5 10.5 8.5C11.6046 8.5 12.5 9.39543 12.5 10.5C12.5 11.6046 11.6046 12.5 10.5 12.5C9.39543 12.5 8.5 11.6046 8.5 10.5Z" fill="#B8B8B8"/>
<path fill-rule="evenodd" clip-rule="evenodd" d="M13.5 10.5C13.5 9.39543 14.3954 8.5 15.5 8.5C16.6046 8.5 17.5 9.39543 17.5 10.5C17.5 11.6046 16.6046 12.5 15.5 12.5C14.3954 12.5 13.5 11.6046 13.5 10.5Z" fill="#B8B8B8"/>
</svg>
