<svg width="23" height="19" viewBox="0 0 23 19" fill="none" xmlns="http://www.w3.org/2000/svg">
<path fill-rule="evenodd" clip-rule="evenodd" d="M19.0315 3.3648C17.1504 1.68047 14.1411 1.59911 12.1524 3.128C11.9629 3.27367 11.7308 3.34439 11.5 3.34171C11.2692 3.34439 11.037 3.27367 10.8476 3.128C8.85884 1.59911 5.84958 1.68047 3.96844 3.3648C2.1015 5.03641 2.01612 7.6857 3.70433 9.44619C3.72913 9.47205 3.75209 9.49886 3.77319 9.52646L11.5 16.4448L19.2268 9.52646C19.2479 9.49885 19.2709 9.47205 19.2957 9.44619C20.9839 7.6857 20.8985 5.03641 19.0315 3.3648ZM20.9231 10.5304C23.1817 8.03467 23.0128 4.35757 20.424 2.03963C17.9925 -0.137526 14.2383 -0.389099 11.5 1.27911C8.7617 -0.389099 5.0075 -0.137526 2.57593 2.03963C-0.0128543 4.35757 -0.181729 8.03467 2.07685 10.5304C2.12271 10.6038 2.17972 10.6717 2.24682 10.7318L10.8037 18.3934C11.1917 18.7407 11.8083 18.7407 12.1962 18.3934L20.7532 10.7318C20.8203 10.6717 20.8773 10.6038 20.9231 10.5304Z" fill="#B8B8B8"/>
<path fill-rule="evenodd" clip-rule="evenodd" d="M17.5 6.65398C17.5 5.63437 16.6046 4.80782 15.5 4.80782V2.96167C17.7091 2.96167 19.5 4.61477 19.5 6.65398H17.5Z" fill="#B8B8B8"/>
</svg>
