<svg width="25" height="25" viewBox="0 0 25 25" fill="none" xmlns="http://www.w3.org/2000/svg">
<path fill-rule="evenodd" clip-rule="evenodd" d="M21.9231 13.6995C24.1817 10.9958 24.0128 7.01229 21.4241 4.50119C18.9925 2.1426 15.2383 1.87006 12.5 3.67728C9.7617 1.87006 6.0075 2.1426 3.57593 4.50119C0.987146 7.01228 0.818271 10.9958 3.07685 13.6995C3.12271 13.779 3.17972 13.8526 3.24682 13.9177L11.8037 22.2178C12.1917 22.594 12.8083 22.594 13.1962 22.2178L21.7532 13.9177C21.8203 13.8526 21.8773 13.779 21.9231 13.6995ZM16.5 7.49997C17.6046 7.49997 18.5 8.3954 18.5 9.49997H20.5C20.5 7.29083 18.7091 5.49997 16.5 5.49997V7.49997Z" fill="#00CC96"/>
</svg>
