<svg width="25" height="25" viewBox="0 0 25 25" fill="none" xmlns="http://www.w3.org/2000/svg">
<path fill-rule="evenodd" clip-rule="evenodd" d="M14.1641 3.40766C13.1564 2.73586 11.8436 2.73586 10.8359 3.40766L3.8359 8.07432C3.0013 8.63072 2.5 9.56742 2.5 10.5705V19.5001C2.5 21.157 3.84315 22.5001 5.5 22.5001H9.5C10.0523 22.5001 10.5 22.0524 10.5 21.5001V16.5001C10.5 15.9478 10.9477 15.5001 11.5 15.5001H13.5C14.0523 15.5001 14.5 15.9478 14.5 16.5001V21.5001C14.5 22.0524 14.9477 22.5001 15.5 22.5001H19.5C21.1569 22.5001 22.5 21.157 22.5 19.5001V10.5705C22.5 9.56742 21.9987 8.63072 21.1641 8.07432L14.1641 3.40766Z" fill="#00CC96"/>
</svg>
