<svg width="21" height="21" viewBox="0 0 21 21" fill="none" xmlns="http://www.w3.org/2000/svg">
<path fill-rule="evenodd" clip-rule="evenodd" d="M11.0547 3.07176C10.7188 2.84783 10.2812 2.84783 9.9453 3.07176L2.9453 7.73842C2.6671 7.92389 2.5 8.23612 2.5 8.57048V17.5001C2.5 18.0524 2.94772 18.5001 3.5 18.5001H6.5V14.5001C6.5 12.8433 7.84315 11.5001 9.5 11.5001H11.5C13.1569 11.5001 14.5 12.8433 14.5 14.5001V18.5001H17.5C18.0523 18.5001 18.5 18.0524 18.5 17.5001V8.57048C18.5 8.23612 18.3329 7.92389 18.0547 7.73842L11.0547 3.07176ZM8.8359 1.40766C9.8436 0.735859 11.1564 0.735859 12.1641 1.40766L19.1641 6.07432C19.9987 6.63072 20.5 7.56742 20.5 8.57048V17.5001C20.5 19.157 19.1569 20.5001 17.5 20.5001H13.5C12.9477 20.5001 12.5 20.0524 12.5 19.5001V14.5001C12.5 13.9478 12.0523 13.5001 11.5 13.5001H9.5C8.94772 13.5001 8.5 13.9478 8.5 14.5001V19.5001C8.5 20.0524 8.05228 20.5001 7.5 20.5001H3.5C1.84315 20.5001 0.5 19.157 0.5 17.5001V8.57048C0.5 7.56742 1.0013 6.63072 1.8359 6.07432L8.8359 1.40766Z" fill="#B8B8B8"/>
</svg>
