<svg width="23" height="21" viewBox="0 0 23 21" fill="none" xmlns="http://www.w3.org/2000/svg">
<path fill-rule="evenodd" clip-rule="evenodd" d="M11.5 2.5C9.29086 2.5 7.5 4.29086 7.5 6.5C7.5 8.70914 9.29086 10.5 11.5 10.5C13.7091 10.5 15.5 8.70914 15.5 6.5C15.5 4.29086 13.7091 2.5 11.5 2.5ZM5.5 6.5C5.5 3.18629 8.18629 0.5 11.5 0.5C14.8137 0.5 17.5 3.18629 17.5 6.5C17.5 9.81371 14.8137 12.5 11.5 12.5C8.18629 12.5 5.5 9.81371 5.5 6.5Z" fill="#B8B8B8"/>
<path fill-rule="evenodd" clip-rule="evenodd" d="M6.13802 16.3324C4.62108 16.8581 3.54836 17.5642 2.97953 18.285C2.9757 18.2898 2.97235 18.2943 2.96942 18.2983C2.9983 18.3327 3.05605 18.383 3.1502 18.4261C3.24813 18.471 3.36863 18.5 3.49999 18.5H19.5C19.6314 18.5 19.7519 18.471 19.8498 18.4261C19.9439 18.383 20.0017 18.3327 20.0306 18.2983C20.0276 18.2943 20.0243 18.2898 20.0205 18.285C19.4516 17.5642 18.3789 16.8581 16.862 16.3324C15.3637 15.8133 13.5151 15.5 11.5 15.5C9.48487 15.5 7.63629 15.8133 6.13802 16.3324ZM20.0495 18.3301C20.0495 18.3301 20.0492 18.3294 20.0488 18.328C20.0494 18.3295 20.0496 18.3302 20.0495 18.3301ZM2.95044 18.3301C2.9504 18.3301 2.9506 18.3295 2.95119 18.3281L2.95044 18.3301ZM5.48318 14.4427C7.21497 13.8426 9.28758 13.5 11.5 13.5C13.7124 13.5 15.785 13.8426 17.5168 14.4427C19.2299 15.0363 20.6962 15.9129 21.5904 17.0459C21.8879 17.4228 22.0542 17.867 22.0453 18.3368C22.0366 18.7987 21.8602 19.2055 21.6114 19.5238C21.1265 20.144 20.3233 20.5 19.5 20.5H3.49999C2.6767 20.5 1.87349 20.144 1.38863 19.5238C1.13977 19.2055 0.963403 18.7987 0.954683 18.3368C0.945817 17.867 1.1121 17.4228 1.40958 17.0459C2.30382 15.9129 3.77005 15.0363 5.48318 14.4427Z" fill="#B8B8B8"/>
</svg>
