<svg width="25" height="25" viewBox="0 0 25 25" fill="none" xmlns="http://www.w3.org/2000/svg">
<path fill-rule="evenodd" clip-rule="evenodd" d="M12.5 2.5C9.18629 2.5 6.5 5.18629 6.5 8.5C6.5 11.8137 9.18629 14.5 12.5 14.5C15.8137 14.5 18.5 11.8137 18.5 8.5C18.5 5.18629 15.8137 2.5 12.5 2.5Z" fill="#00CC96"/>
<path d="M4.49999 21.5C3.39542 21.5 2.51024 20.5325 3.19455 19.6655C4.65762 17.8117 8.27245 16.5 12.5 16.5C16.7275 16.5 20.3424 17.8117 21.8054 19.6655C22.4897 20.5325 21.6046 21.5 20.5 21.5H4.49999Z" fill="#00CC96"/>
<path fill-rule="evenodd" clip-rule="evenodd" d="M7.13802 18.3324C5.62108 18.8581 4.54836 19.5642 3.97953 20.285C3.9757 20.2898 3.97235 20.2943 3.96942 20.2983C3.9983 20.3327 4.05605 20.383 4.1502 20.4261C4.24813 20.471 4.36863 20.5 4.49999 20.5H20.5C20.6314 20.5 20.7519 20.471 20.8498 20.4261C20.9439 20.383 21.0017 20.3327 21.0306 20.2983C21.0276 20.2943 21.0243 20.2898 21.0205 20.285C20.4516 19.5642 19.3789 18.8581 17.862 18.3324C16.3637 17.8133 14.5151 17.5 12.5 17.5C10.4849 17.5 8.63629 17.8133 7.13802 18.3324ZM21.0495 20.3301C21.0495 20.3301 21.0492 20.3294 21.0488 20.328C21.0494 20.3295 21.0496 20.3302 21.0495 20.3301ZM3.95044 20.3301C3.9504 20.3301 3.9506 20.3295 3.95119 20.3281L3.95044 20.3301ZM6.48318 16.4427C8.21497 15.8426 10.2876 15.5 12.5 15.5C14.7124 15.5 16.785 15.8426 18.5168 16.4427C20.2299 17.0363 21.6962 17.9129 22.5904 19.0459C22.8879 19.4228 23.0542 19.867 23.0453 20.3368C23.0366 20.7987 22.8602 21.2055 22.6114 21.5238C22.1265 22.144 21.3233 22.5 20.5 22.5H4.49999C3.6767 22.5 2.87349 22.144 2.38863 21.5238C2.13977 21.2055 1.9634 20.7987 1.95468 20.3368C1.94582 19.867 2.1121 19.4228 2.40958 19.0459C3.30382 17.9129 4.77005 17.0363 6.48318 16.4427Z" fill="#00CC96"/>
</svg>
