<svg width="32" height="32" viewBox="0 0 32 32" fill="none" xmlns="http://www.w3.org/2000/svg">
<path fill-rule="evenodd" clip-rule="evenodd" d="M9 9.5C9 8.94772 9.44772 8.5 10 8.5H22C22.5523 8.5 23 8.94772 23 9.5V26C23 26.5523 22.5523 27 22 27H18C18.5523 27 19 26.5523 19 26V20.5C19 19.9477 18.5523 19.5 18 19.5H14C13.4477 19.5 13 19.9477 13 20.5V26C13 26.5523 13.4477 27 14 27H10C9.44772 27 9 26.5523 9 26V9.5ZM14.5 18H12V16H14.5V18ZM12 14H14.5V12H12V14ZM22 18H17V16H22V18ZM17 14H22V12H17V14Z" fill="#00CC96"/>
<path fill-rule="evenodd" clip-rule="evenodd" d="M7 25H25V27H7V25Z" fill="#00CC96"/>
<path fill-rule="evenodd" clip-rule="evenodd" d="M12 6V9.5H10V6H12Z" fill="#00CC96"/>
<path fill-rule="evenodd" clip-rule="evenodd" d="M15 7V9.5H13V7H15Z" fill="#00CC96"/>
</svg>
