<svg width="33" height="32" viewBox="0 0 33 32" fill="none" xmlns="http://www.w3.org/2000/svg">
<path fill-rule="evenodd" clip-rule="evenodd" d="M6.50001 14.5C6.19207 14.5 5.90131 14.6419 5.7118 14.8846C5.5223 15.1273 5.45518 15.4438 5.52987 15.7425L6.2724 18.7127C6.82886 20.9385 8.82878 22.5 11.1231 22.5H21.8769C24.1712 22.5 26.1712 20.9385 26.7276 18.7127L27.4702 15.7425C27.5448 15.4438 27.4777 15.1273 27.2882 14.8846C27.0987 14.6419 26.8079 14.5 26.5 14.5H6.50001Z" fill="#00CC96"/>
<path fill-rule="evenodd" clip-rule="evenodd" d="M9.60559 23.0527L10.6056 21.0527L12.3944 21.9472L11.3944 23.9472L9.60559 23.0527Z" fill="#00CC96"/>
<path fill-rule="evenodd" clip-rule="evenodd" d="M23.3944 23.0527L22.3944 21.0527L20.6056 21.9472L21.6056 23.9472L23.3944 23.0527Z" fill="#00CC96"/>
<path fill-rule="evenodd" clip-rule="evenodd" d="M20.5 10C20.5 8.61929 21.6193 7.5 23 7.5C24.3807 7.5 25.5 8.61929 25.5 10V15.5H23.5V10C23.5 9.72386 23.2761 9.5 23 9.5C22.7239 9.5 22.5 9.72386 22.5 10V11.5H20.5V10Z" fill="#00CC96"/>
</svg>
