<svg width="33" height="32" viewBox="0 0 33 32" fill="none" xmlns="http://www.w3.org/2000/svg">
<path fill-rule="evenodd" clip-rule="evenodd" d="M22.4393 13.5605L10.5607 13.5606C9.89762 13.5606 9.26173 13.824 8.79289 14.2928L5.79289 17.2928C5.40237 17.6833 5.40237 18.3165 5.79289 18.707L7.91421 20.8283C8.30474 21.2189 8.9379 21.2189 9.32843 20.8283L11.5962 18.5606L21.4038 18.5605L23.6716 20.8283C23.8591 21.0159 24.1135 21.1212 24.3787 21.1212C24.6439 21.1212 24.8983 21.0159 25.0858 20.8283L27.2071 18.707C27.5976 18.3165 27.5976 17.6833 27.2071 17.2928L24.2071 14.2928C23.7383 13.8239 23.1024 13.5605 22.4393 13.5605Z" fill="#00CC96"/>
<path fill-rule="evenodd" clip-rule="evenodd" d="M8.5 23V19.5H10.5V22H11.5V21C11.5 20.4477 11.9477 20 12.5 20H20.5C21.0523 20 21.5 20.4477 21.5 21V22H22.5V19.5H24.5V23C24.5 23.5523 24.0523 24 23.5 24H20.5C19.9477 24 19.5 23.5523 19.5 23V22H13.5V23C13.5 23.5523 13.0523 24 12.5 24H9.5C8.94772 24 8.5 23.5523 8.5 23Z" fill="#00CC96"/>
<path fill-rule="evenodd" clip-rule="evenodd" d="M9 9C9 8.44772 9.44772 8 10 8H23C23.5523 8 24 8.44772 24 9V14.5H22V10H11V14.5H9V9Z" fill="#00CC96"/>
</svg>
