<svg width="20" height="18" viewBox="0 0 20 18" fill="none" xmlns="http://www.w3.org/2000/svg">
<path fill-rule="evenodd" clip-rule="evenodd" d="M3 0C1.34315 0 0 1.34315 0 3V12C0 13.6569 1.34315 15 3 15H14.1972L18.4453 17.8321C18.7522 18.0366 19.1467 18.0557 19.4719 17.8817C19.797 17.7077 20 17.3688 20 17V3C20 1.34315 18.6569 0 17 0H3ZM9.78723 3.03317C8.13038 3.03317 6.78723 4.37632 6.78723 6.03317C6.78723 6.7085 7.01037 7.33171 7.38695 7.83309C6.41555 8.56287 5.78723 9.72464 5.78723 11.0332C5.78723 11.5855 6.23495 12.0332 6.78723 12.0332H12.7872C13.3395 12.0332 13.7872 11.5855 13.7872 11.0332C13.7872 9.72464 13.1589 8.56287 12.1875 7.83309C12.5641 7.33171 12.7872 6.7085 12.7872 6.03317C12.7872 4.37632 11.4441 3.03317 9.78723 3.03317Z" fill="#00CC96"/>
</svg>
