<svg width="24" height="24" viewBox="0 0 24 24" fill="none" xmlns="http://www.w3.org/2000/svg">
<rect width="24" height="24" rx="12" fill="#FF5C5C"/>
<path fill-rule="evenodd" clip-rule="evenodd" d="M18.282 12.7996C19.7878 10.9971 19.6752 8.34144 17.9493 6.66738C16.3283 5.09498 13.8255 4.91329 12 6.11811C10.1744 4.91329 7.67162 5.09498 6.05058 6.66738C4.32472 8.34144 4.21214 10.9971 5.71786 12.7996C5.74844 12.8526 5.78644 12.9016 5.83117 12.945L11.5358 18.4784C11.7944 18.7293 12.2055 18.7293 12.4641 18.4784L18.1687 12.945C18.2135 12.9016 18.2515 12.8526 18.282 12.7996ZM14.6666 8.66656C15.403 8.66656 16 9.26352 16 9.9999H17.3333C17.3333 8.52714 16.1394 7.33323 14.6666 7.33323V8.66656Z" fill="white"/>
</svg>
