<svg width="32" height="32" viewBox="0 0 32 32" fill="none" xmlns="http://www.w3.org/2000/svg">
<path fill-rule="evenodd" clip-rule="evenodd" d="M24.5 12.5C24.5 12.9045 24.2564 13.2691 23.8827 13.4239C23.509 13.5787 23.0789 13.4931 22.7929 13.2071L20.2929 10.7071C20.1054 10.5196 20 10.2652 20 10V6.5C20 5.94772 20.4477 5.5 21 5.5H23.5C24.0523 5.5 24.5 5.94772 24.5 6.5V12.5Z" fill="#00CC96"/>
<path fill-rule="evenodd" clip-rule="evenodd" d="M16.8169 5.22488C16.4543 4.92933 15.9353 4.92463 15.5674 5.21357L5.38184 13.2136L6.6172 14.7864L7.49952 14.0934V26C7.49952 26.5523 7.94723 27 8.49952 27H12.5061C12.5021 26.9635 12.5 26.9264 12.5 26.8889V19.1111C12.5 18.5588 12.9477 18.1111 13.5 18.1111H19C19.5523 18.1111 20 18.5588 20 19.1111V26.8889C20 26.9264 19.9979 26.9635 19.9939 27H23.4995C24.0518 27 24.4995 26.5523 24.4995 26V14.0674L25.3677 14.7751L26.6313 13.2249L24.1313 11.1871L16.8169 5.22488ZM12.5 13C12.5 11.067 14.067 9.5 16 9.5C17.933 9.5 19.5 11.067 19.5 13C19.5 14.933 17.933 16.5 16 16.5C14.067 16.5 12.5 14.933 12.5 13Z" fill="#00CC96"/>
</svg>
