<svg width="375" height="79" viewBox="0 0 375 79" fill="none" xmlns="http://www.w3.org/2000/svg">
<rect width="375" height="79" fill="url(#paint0_linear_333_3695)"/>
<path fill-rule="evenodd" clip-rule="evenodd" d="M54.1641 30.4076C53.1564 29.7358 51.8436 29.7358 50.8359 30.4076L43.8359 35.0742C43.0013 35.6306 42.5 36.5673 42.5 37.5704V46.5C42.5 48.1569 43.8431 49.5 45.5 49.5H49.5C50.0523 49.5 50.5 49.0523 50.5 48.5V43.5C50.5 42.9477 50.9477 42.5 51.5 42.5H53.5C54.0523 42.5 54.5 42.9477 54.5 43.5V48.5C54.5 49.0523 54.9477 49.5 55.5 49.5H59.5C61.1569 49.5 62.5 48.1569 62.5 46.5V37.5704C62.5 36.5673 61.9987 35.6306 61.1641 35.0742L54.1641 30.4076Z" fill="#00CC96"/>
<g clip-path="url(#clip0_333_3695)">
<path fill-rule="evenodd" clip-rule="evenodd" d="M149.032 34.3647C147.15 32.6804 144.141 32.5991 142.152 34.128C141.963 34.2736 141.731 34.3443 141.5 34.3417C141.269 34.3443 141.037 34.2736 140.848 34.128C138.859 32.5991 135.85 32.6804 133.968 34.3647C132.102 36.0364 132.016 38.6857 133.704 40.4461C133.729 40.472 133.752 40.4988 133.773 40.5264L141.5 47.4448L149.227 40.5264C149.248 40.4988 149.271 40.472 149.296 40.4461C150.984 38.6857 150.898 36.0364 149.032 34.3647ZM150.923 41.5304C153.182 39.0346 153.013 35.3575 150.424 33.0396C147.992 30.8624 144.238 30.6109 141.5 32.2791C138.762 30.6109 135.007 30.8624 132.576 33.0396C129.987 35.3575 129.818 39.0346 132.077 41.5304C132.123 41.6038 132.18 41.6716 132.247 41.7317L140.804 49.3934C141.192 49.7407 141.808 49.7407 142.196 49.3934L150.753 41.7317C150.82 41.6716 150.877 41.6038 150.923 41.5304Z" fill="#B8B8B8"/>
<path fill-rule="evenodd" clip-rule="evenodd" d="M147.5 37.6539C147.5 36.6343 146.605 35.8077 145.5 35.8077V33.9615C147.709 33.9615 149.5 35.6146 149.5 37.6539H147.5Z" fill="#B8B8B8"/>
<circle cx="148.5" cy="34.5" r="4.5" fill="#EB5757" stroke="#FCFCFD"/>
</g>
<path fill-rule="evenodd" clip-rule="evenodd" d="M232.5 31.5C236.918 31.5 240.5 35.0817 240.5 39.5C240.5 40.7682 240.206 41.9648 239.682 43.0278C239.538 43.3203 239.486 43.662 239.556 44.0014L240.221 47.2434L236.848 46.6123C236.525 46.5518 236.201 46.6012 235.921 46.7339C234.885 47.2249 233.726 47.5 232.5 47.5C228.082 47.5 224.5 43.9183 224.5 39.5C224.5 35.0817 228.082 31.5 232.5 31.5ZM242.5 39.5C242.5 33.9772 238.023 29.5 232.5 29.5C226.977 29.5 222.5 33.9772 222.5 39.5C222.5 45.0228 226.977 49.5 232.5 49.5C233.973 49.5 235.374 49.1809 236.636 48.6072L240.585 49.3461C241.632 49.5421 242.544 48.614 242.33 47.5701L241.549 43.7622C242.159 42.4681 242.5 41.0225 242.5 39.5Z" fill="#B8B8B8"/>
<path fill-rule="evenodd" clip-rule="evenodd" d="M225.5 39.5C225.5 38.3954 226.395 37.5 227.5 37.5C228.605 37.5 229.5 38.3954 229.5 39.5C229.5 40.6046 228.605 41.5 227.5 41.5C226.395 41.5 225.5 40.6046 225.5 39.5Z" fill="#B8B8B8"/>
<path fill-rule="evenodd" clip-rule="evenodd" d="M230.5 39.5C230.5 38.3954 231.395 37.5 232.5 37.5C233.605 37.5 234.5 38.3954 234.5 39.5C234.5 40.6046 233.605 41.5 232.5 41.5C231.395 41.5 230.5 40.6046 230.5 39.5Z" fill="#B8B8B8"/>
<path fill-rule="evenodd" clip-rule="evenodd" d="M235.5 39.5C235.5 38.3954 236.395 37.5 237.5 37.5C238.605 37.5 239.5 38.3954 239.5 39.5C239.5 40.6046 238.605 41.5 237.5 41.5C236.395 41.5 235.5 40.6046 235.5 39.5Z" fill="#B8B8B8"/>
<path fill-rule="evenodd" clip-rule="evenodd" d="M322.5 31.5C320.291 31.5 318.5 33.2909 318.5 35.5C318.5 37.7091 320.291 39.5 322.5 39.5C324.709 39.5 326.5 37.7091 326.5 35.5C326.5 33.2909 324.709 31.5 322.5 31.5ZM316.5 35.5C316.5 32.1863 319.186 29.5 322.5 29.5C325.814 29.5 328.5 32.1863 328.5 35.5C328.5 38.8137 325.814 41.5 322.5 41.5C319.186 41.5 316.5 38.8137 316.5 35.5Z" fill="#B8B8B8"/>
<path fill-rule="evenodd" clip-rule="evenodd" d="M317.138 45.3324C315.621 45.8581 314.548 46.5642 313.98 47.285C313.976 47.2898 313.972 47.2943 313.969 47.2983C313.998 47.3327 314.056 47.383 314.15 47.4261C314.248 47.471 314.369 47.5 314.5 47.5H330.5C330.631 47.5 330.752 47.471 330.85 47.4261C330.944 47.383 331.002 47.3327 331.031 47.2983C331.028 47.2943 331.024 47.2898 331.02 47.285C330.452 46.5642 329.379 45.8581 327.862 45.3324C326.364 44.8133 324.515 44.5 322.5 44.5C320.485 44.5 318.636 44.8133 317.138 45.3324ZM331.05 47.3301C331.049 47.3301 331.049 47.3294 331.049 47.328C331.049 47.3295 331.05 47.3302 331.05 47.3301ZM313.95 47.3301C313.95 47.3301 313.951 47.3295 313.951 47.3281L313.95 47.3301ZM316.483 43.4427C318.215 42.8426 320.288 42.5 322.5 42.5C324.712 42.5 326.785 42.8426 328.517 43.4427C330.23 44.0363 331.696 44.9129 332.59 46.0459C332.888 46.4228 333.054 46.867 333.045 47.3368C333.037 47.7987 332.86 48.2055 332.611 48.5238C332.126 49.144 331.323 49.5 330.5 49.5H314.5C313.677 49.5 312.873 49.144 312.389 48.5238C312.14 48.2055 311.963 47.7987 311.955 47.3368C311.946 46.867 312.112 46.4228 312.41 46.0459C313.304 44.9129 314.77 44.0363 316.483 43.4427Z" fill="#B8B8B8"/>
<defs>
<linearGradient id="paint0_linear_333_3695" x1="0" y1="0" x2="377.38" y2="65.2284" gradientUnits="userSpaceOnUse">
<stop stop-color="#FCFCFD"/>
<stop offset="1" stop-color="#FCFCFD" stop-opacity="0.6"/>
</linearGradient>
<clipPath id="clip0_333_3695">
<rect width="24" height="24" fill="white" transform="translate(130.5 27.5)"/>
</clipPath>
</defs>
</svg>
