<svg width="16" height="20" viewBox="0 0 16 20" fill="none" xmlns="http://www.w3.org/2000/svg">
<path fill-rule="evenodd" clip-rule="evenodd" d="M2.36989 2.44728C3.84995 1.07326 5.85619 0.384094 8 0.384094C10.1438 0.384094 12.15 1.07326 13.6301 2.44728C15.1212 3.83155 16 5.83926 16 8.31173C16 10.2323 14.9373 12.3344 13.757 14.1155C12.5483 15.9396 11.0877 17.6137 10.0551 18.7175C8.93451 19.9154 7.06548 19.9154 5.94488 18.7175C4.91232 17.6137 3.45167 15.9396 2.24296 14.1155C1.06271 12.3344 0 10.2323 0 8.31173C0 5.83926 0.878779 3.83155 2.36989 2.44728ZM6 7.38409C6 6.27952 6.89543 5.38409 8 5.38409C9.10457 5.38409 10 6.27952 10 7.38409C10 8.48866 9.10457 9.38409 8 9.38409C6.89543 9.38409 6 8.48866 6 7.38409ZM8 3.38409C5.79086 3.38409 4 5.17496 4 7.38409C4 9.59323 5.79086 11.3841 8 11.3841C10.2091 11.3841 12 9.59323 12 7.38409C12 5.17496 10.2091 3.38409 8 3.38409Z" fill="#271B27"/>
</svg>
