<svg width="20" height="22" viewBox="0 0 20 22" fill="none" xmlns="http://www.w3.org/2000/svg">
<path fill-rule="evenodd" clip-rule="evenodd" d="M8.30407 3.5C5.90673 3.5 3.84677 5.20157 3.39404 7.55577L1.518 17.3112C1.46167 17.6041 1.53905 17.9069 1.72902 18.1368C1.91899 18.3668 2.20171 18.5 2.50001 18.5H17.5C17.7983 18.5 18.081 18.3668 18.271 18.1368C18.461 17.9069 18.5383 17.6041 18.482 17.3112L16.606 7.55576C16.1532 5.20156 14.0933 3.5 11.6959 3.5H8.30407Z" fill="#00CC96"/>
<path fill-rule="evenodd" clip-rule="evenodd" d="M20 18.5H0V16.5H20V18.5Z" fill="#00CC96"/>
<path fill-rule="evenodd" clip-rule="evenodd" d="M6 17.5C6 16.9477 6.44772 16.5 7 16.5H13C13.5523 16.5 14 16.9477 14 17.5V18.5C14 20.1569 12.6569 21.5 11 21.5H9C7.34315 21.5 6 20.1569 6 18.5V17.5ZM8 18.5C8 19.0523 8.44772 19.5 9 19.5H11C11.5523 19.5 12 19.0523 12 18.5H8Z" fill="#00CC96"/>
<path fill-rule="evenodd" clip-rule="evenodd" d="M8 5.5C7.44772 5.5 7 5.05228 7 4.5V3.5C7 1.84315 8.34315 0.5 10 0.5C11.6569 0.5 13 1.84315 13 3.5V4.5C13 5.05228 12.5523 5.5 12 5.5H8Z" fill="#00CC96"/>
</svg>
