<svg width="33" height="32" viewBox="0 0 33 32" fill="none" xmlns="http://www.w3.org/2000/svg">
<path fill-rule="evenodd" clip-rule="evenodd" d="M5.5 16C5.5 9.92487 10.4249 5 16.5 5C22.5751 5 27.5 9.92487 27.5 16C27.5 22.0751 22.5751 27 16.5 27C10.4249 27 5.5 22.0751 5.5 16ZM13.5 10C12.9477 10 12.5 10.4477 12.5 11V17V21H14.5V18H17.5C19.7091 18 21.5 16.2091 21.5 14C21.5 11.7909 19.7091 10 17.5 10H13.5ZM17.5 16H14.5V12H17.5C18.6046 12 19.5 12.8954 19.5 14C19.5 15.1046 18.6046 16 17.5 16Z" fill="#00CC96"/>
</svg>
