<svg width="20" height="20" viewBox="0 0 20 20" fill="none" xmlns="http://www.w3.org/2000/svg">
<path fill-rule="evenodd" clip-rule="evenodd" d="M7.5 1C7.5 0.447715 7.94772 0 8.5 0H11.5C12.0523 0 12.5 0.447715 12.5 1V2.39866C12.8826 2.52443 13.2524 2.67822 13.6069 2.85756L14.5962 1.86827C14.9867 1.47775 15.6199 1.47775 16.0104 1.86827L18.1317 3.98959C18.3193 4.17713 18.4246 4.43148 18.4246 4.6967C18.4246 4.96192 18.3193 5.21627 18.1317 5.40381L17.1424 6.3931C17.3218 6.74763 17.4756 7.11741 17.6013 7.5H19C19.5523 7.5 20 7.94772 20 8.5V11.5C20 12.0523 19.5523 12.5 19 12.5H17.6013C17.4756 12.8826 17.3218 13.2524 17.1424 13.6069L18.1317 14.5962C18.5223 14.9867 18.5223 15.6199 18.1317 16.0104L16.0104 18.1317C15.6199 18.5223 14.9867 18.5223 14.5962 18.1317L13.6069 17.1424C13.2524 17.3218 12.8826 17.4756 12.5 17.6013V19C12.5 19.5523 12.0523 20 11.5 20H8.5C7.94772 20 7.5 19.5523 7.5 19V17.6013C7.11741 17.4756 6.74763 17.3218 6.3931 17.1424L5.40381 18.1317C5.21627 18.3193 4.96192 18.4246 4.6967 18.4246C4.43148 18.4246 4.17713 18.3193 3.98959 18.1317L1.86827 16.0104C1.47775 15.6199 1.47775 14.9867 1.86827 14.5962L2.85756 13.6069C2.67822 13.2524 2.52443 12.8826 2.39866 12.5H1C0.447715 12.5 0 12.0523 0 11.5V8.5C0 7.94772 0.447715 7.5 1 7.5H2.39866C2.52443 7.11741 2.67822 6.74763 2.85756 6.3931L1.86827 5.40381C1.47775 5.01328 1.47775 4.38012 1.86827 3.98959L3.98959 1.86827C4.38012 1.47775 5.01328 1.47775 5.40381 1.86827L6.3931 2.85756C6.74763 2.67822 7.11741 2.52443 7.5 2.39866V1ZM8 10C8 8.89543 8.89543 8 10 8C11.1046 8 12 8.89543 12 10C12 11.1046 11.1046 12 10 12C8.89543 12 8 11.1046 8 10ZM10 6C7.79086 6 6 7.79086 6 10C6 12.2091 7.79086 14 10 14C12.2091 14 14 12.2091 14 10C14 7.79086 12.2091 6 10 6Z" fill="#00CC96"/>
</svg>
