<svg width="22" height="24" viewBox="0 0 22 24" fill="none" xmlns="http://www.w3.org/2000/svg">
<path fill-rule="evenodd" clip-rule="evenodd" d="M10.6119 0.578365C10.8601 0.473878 11.1399 0.473878 11.3881 0.578365L20.8881 4.57836C21.2713 4.73974 21.5147 5.12145 21.4993 5.53701L21.3155 10.4988C21.1088 16.0801 17.6047 21.0045 12.3994 23.0288L11.3625 23.432C11.1293 23.5227 10.8707 23.5227 10.6376 23.432L9.60062 23.0288C4.39534 21.0045 0.891173 16.0801 0.684461 10.4988L0.50069 5.53701C0.485299 5.12145 0.72869 4.73974 1.11195 4.57836L10.6119 0.578365ZM9.70711 16.7071L17.7071 8.70711L16.2929 7.29289L9 14.5858L6.20711 11.7929L4.79289 13.2071L8.29289 16.7071C8.68342 17.0976 9.31658 17.0976 9.70711 16.7071Z" fill="#00CC96"/>
</svg>
