<svg width="33" height="32" viewBox="0 0 33 32" fill="none" xmlns="http://www.w3.org/2000/svg">
<path fill-rule="evenodd" clip-rule="evenodd" d="M26.0071 9.13813C26.3125 9.31781 26.5 9.64568 26.5 10V21.4286C26.5 21.8051 26.2885 22.1496 25.9529 22.3202L16.9529 26.8916C16.6429 27.049 16.2733 27.0342 15.977 26.8523C15.6806 26.6704 15.5 26.3477 15.5 26V15C15.5 14.6368 15.6969 14.3022 16.0144 14.1258L25.0144 9.12584C25.3241 8.95377 25.7017 8.95844 26.0071 9.13813ZM17.5 15.5884V24.3705L24.5 20.8149V11.6995L17.5 15.5884Z" fill="#00CC96"/>
<path fill-rule="evenodd" clip-rule="evenodd" d="M16.9061 5.08619C16.6476 4.97127 16.3524 4.97127 16.0939 5.08619L7.09387 9.08619C6.74741 9.24017 6.51783 9.57682 6.50099 9.95558C6.48415 10.3343 6.68294 10.69 7.01436 10.8742L16.0144 15.8742C16.3164 16.0419 16.6836 16.0419 16.9856 15.8742L25.9856 10.8742C26.3171 10.69 26.5159 10.3343 26.499 9.95558C26.4822 9.57682 26.2526 9.24017 25.9061 9.08619L16.9061 5.08619Z" fill="#00CC96"/>
<path fill-rule="evenodd" clip-rule="evenodd" d="M6.99287 9.13813C6.68749 9.31781 6.5 9.64568 6.5 10V21.4286C6.5 21.8051 6.71146 22.1496 7.04713 22.3202L16.0471 26.8916C16.3571 27.049 16.7267 27.0342 17.023 26.8523C17.3194 26.6704 17.5 26.3477 17.5 26V15C17.5 14.6368 17.3031 14.3022 16.9856 14.1258L7.98564 9.12584C7.67591 8.95377 7.29825 8.95844 6.99287 9.13813ZM15.5 15.5884V24.3705L8.5 20.8149V11.6995L15.5 15.5884Z" fill="#00CC96"/>
</svg>
