<svg width="22" height="22" viewBox="0 0 22 22" fill="none" xmlns="http://www.w3.org/2000/svg">
<path fill-rule="evenodd" clip-rule="evenodd" d="M11.8169 0.224883C11.4543 -0.0706718 10.9353 -0.0753702 10.5674 0.213572L0.381836 8.21357L1.6172 9.78643L2.49952 9.09343V21C2.49952 21.5523 2.94723 22 3.49952 22H7.5061C7.50207 21.9635 7.5 21.9264 7.5 21.8889V14.1111C7.5 13.5588 7.94772 13.1111 8.5 13.1111H14C14.5523 13.1111 15 13.5588 15 14.1111V21.8889C15 21.9264 14.9979 21.9635 14.9939 22H18.4995C19.0518 22 19.4995 21.5523 19.4995 21V9.06744L20.3677 9.77512L21.6313 8.22488L19.1313 6.18707L11.8169 0.224883ZM7.5 8C7.5 6.067 9.067 4.5 11 4.5C12.933 4.5 14.5 6.067 14.5 8C14.5 9.933 12.933 11.5 11 11.5C9.067 11.5 7.5 9.933 7.5 8Z" fill="#271B27"/>
</svg>
