<svg width="24" height="24" viewBox="0 0 24 24" fill="none" xmlns="http://www.w3.org/2000/svg">
<path fill-rule="evenodd" clip-rule="evenodd" d="M15.1613 5.5625C16.6557 5.5625 17.8672 6.77396 17.8672 8.26838C17.8672 9.7628 16.6557 10.9743 15.1613 10.9743V12.9743C17.7603 12.9743 19.8672 10.8674 19.8672 8.26838C19.8672 5.66939 17.7603 3.5625 15.1613 3.5625V5.5625Z" fill="#00CC96"/>
<path fill-rule="evenodd" clip-rule="evenodd" d="M15.1618 12.9741C18.2481 12.9741 20.75 15.4761 20.75 18.5624H22.75C22.75 14.3715 19.3526 10.9741 15.1618 10.9741V12.9741Z" fill="#00CC96"/>
<path fill-rule="evenodd" clip-rule="evenodd" d="M9.25 3.5625C11.9769 3.5625 14.1875 5.77309 14.1875 8.5C14.1875 11.2269 11.9769 13.4375 9.25 13.4375C6.52309 13.4375 4.3125 11.2269 4.3125 8.5C4.3125 5.77309 6.52309 3.5625 9.25 3.5625Z" fill="#00CC96"/>
<path fill-rule="evenodd" clip-rule="evenodd" d="M9.25 13.4375C12.5637 13.4375 15.25 16.1238 15.25 19.4375H17.25C17.25 15.0192 13.6683 11.4375 9.25 11.4375C4.83172 11.4375 1.25 15.0192 1.25 19.4375H3.25C3.25 16.1238 5.93629 13.4375 9.25 13.4375Z" fill="#00CC96"/>
</svg>
