<svg width="32" height="32" viewBox="0 0 32 32" fill="none" xmlns="http://www.w3.org/2000/svg">
<path fill-rule="evenodd" clip-rule="evenodd" d="M17 10.5C17 10.2025 16.8676 9.92048 16.6386 9.7305C16.4097 9.54051 16.1081 9.46231 15.8157 9.51714L7.81571 11.0171C7.34274 11.1058 7 11.5188 7 12V26C7 26.5523 7.44772 27 8 27H16C16.5523 27 17 26.5523 17 26V10.5ZM10.5 19C9.94772 19 9.5 19.4477 9.5 20V26C9.5 26.5523 9.94772 27 10.5 27H13.5C14.0523 27 14.5 26.5523 14.5 26V20C14.5 19.4477 14.0523 19 13.5 19H10.5ZM10.5 16.5H13.5V14.5H10.5V16.5Z" fill="#00CC96"/>
<path fill-rule="evenodd" clip-rule="evenodd" d="M15 6.00001C15 5.70252 15.1324 5.42048 15.3614 5.2305C15.5903 5.04051 15.8919 4.96231 16.1843 5.01714L24.1843 6.51714C24.6573 6.60582 25 7.01879 25 7.50001V26C25 26.5523 24.5523 27 24 27H16C15.4477 27 15 26.5523 15 26V6.00001ZM21.5 12H18.5V10H21.5V12ZM18.5 16.5H21.5V14.5H18.5V16.5Z" fill="#00CC96"/>
<path fill-rule="evenodd" clip-rule="evenodd" d="M6 25H26V27H6V25Z" fill="#00CC96"/>
</svg>
