<svg width="10" height="18" viewBox="0 0 10 18" fill="none" xmlns="http://www.w3.org/2000/svg">
<path fill-rule="evenodd" clip-rule="evenodd" d="M10 1.50001C10 1.20252 9.86755 0.920483 9.63864 0.730499C9.40972 0.540515 9.1081 0.462313 8.81571 0.517136L0.815711 2.01714C0.342739 2.10582 0 2.51879 0 3.00001V17C0 17.5523 0.447715 18 1 18H9C9.55229 18 10 17.5523 10 17V1.50001ZM3.5 10C2.94772 10 2.5 10.4477 2.5 11V17C2.5 17.5523 2.94772 18 3.5 18H6.5C7.05228 18 7.5 17.5523 7.5 17V11C7.5 10.4477 7.05228 10 6.5 10H3.5ZM3.5 7.5H6.5V5.5H3.5V7.5Z" fill="#271B27"/>
</svg>
