<svg width="36" height="36" viewBox="0 0 36 36" fill="none" xmlns="http://www.w3.org/2000/svg">
<rect width="36" height="36" rx="18" fill="white"/>
<path fill-rule="evenodd" clip-rule="evenodd" d="M27.4231 19.1995C29.6817 16.4958 29.5128 12.5123 26.9241 10.0012C24.4925 7.6426 20.7383 7.37006 18 9.17728C15.2617 7.37006 11.5075 7.6426 9.07593 10.0012C6.48715 12.5123 6.31827 16.4958 8.57685 19.1995C8.62271 19.279 8.67972 19.3526 8.74682 19.4177L17.3037 27.7178C17.6917 28.094 18.3083 28.094 18.6962 27.7178L27.2532 19.4177C27.3203 19.3526 27.3773 19.279 27.4231 19.1995ZM22 13C23.1046 13 24 13.8954 24 15H26C26 12.7908 24.2091 11 22 11V13Z" fill="#FF5C5C"/>
</svg>
