<svg width="36" height="36" viewBox="0 0 36 36" fill="none" xmlns="http://www.w3.org/2000/svg">
<rect width="36" height="36" rx="18" fill="white"/>
<path fill-rule="evenodd" clip-rule="evenodd" d="M12 14C9.79086 14 8 15.7909 8 18C8 20.2091 9.79086 22 12 22C14.2091 22 16 20.2091 16 18C16 15.7909 14.2091 14 12 14Z" fill="#B8B8B8"/>
<path fill-rule="evenodd" clip-rule="evenodd" d="M24 8C21.7909 8 20 9.79086 20 12C20 14.2091 21.7909 16 24 16C26.2091 16 28 14.2091 28 12C28 9.79086 26.2091 8 24 8Z" fill="#B8B8B8"/>
<path fill-rule="evenodd" clip-rule="evenodd" d="M24 20C21.7909 20 20 21.7909 20 24C20 26.2091 21.7909 28 24 28C26.2091 28 28 26.2091 28 24C28 21.7909 26.2091 20 24 20Z" fill="#B8B8B8"/>
<path fill-rule="evenodd" clip-rule="evenodd" d="M21.4741 13.8806L14.9741 17.3806L14.0259 15.6196L20.5259 12.1196L21.4741 13.8806Z" fill="#B8B8B8"/>
<path fill-rule="evenodd" clip-rule="evenodd" d="M20.5259 23.8806L14.0259 20.3806L14.9741 18.6196L21.4741 22.1196L20.5259 23.8806Z" fill="#B8B8B8"/>
</svg>
